PathFileType	4	(X/Y/Z)	D:/ViconDB/Teaching_2017/Workshops/171025_A1_Demo01/Demo/171025_Guy_ROM_body_01.trc
DataRate	CameraRate	NumFrames	NumMarkers	Units	OrigDataRate	OrigDataStartFrame	OrigNumFrames
120.000000	120.000000	4	130	mm	120.000000	1	120
Frame#	Time	System			Vantage_5_2106396			Vantage_5_2106443			Vantage_5_2106435			Vantage_5_2106735			Vantage_5_2106428			Vantage_5_2106437			Vantage_5_2106434			Vantage_5_2106460			Vantage_5_2106228			Vantage_5_2106436			Vantage_5_2106467			Unlabeled_Markers			Labeling			Hips			Spine			Head			Head_End			LeftShoulder			LeftArm			LeftForeArm			LeftHand			LeftHandThumbEnd			LeftHandEnd			RightShoulder			RightArm			RightForeArm			RightHand			RightHandThumbEnd			RightHandEnd			LeftUpLeg			LeftLeg			LeftFoot			LeftToeBase			LeftToeEnd			RightUpLeg			RightLeg			RightFoot			RightToeBase			RightToeEnd			ARIEL			LFHD			RFHD			LBHD			RBHD			C7			T10			CLAV			STRN			LBSH			LFSH			LUPA			LELB			LIEL			LWRE			LOWR			LIWR			LOHAND			LIHAND			RBSH			RFSH			RUPA			RELB			RIEL			RWRE			ROWR			RIWR			ROHAND			RIHAND			LFWT			LMWT			LBWT			LHIP			LKNE			LKNI			LSHN			LANK			LHEL			LMT5			LMT1			LTOE			RFWT			RMWT			RBWT			RHIP			RKNE			RKNI			RSHN			RANK			RHEL			RMT5			RMT1			RTOE			Solving			Hips			Spine			Spine1			Spine2			Spine3			Neck			Head			HeadEnd			RightShoulder			RightArm			RightForeArm			RightForeArmRoll			RightHand			RightHandEnd			R_FingersEnd			RightHandThumb1			RightHandThumb2			LeftShoulder			LeftArm			LeftForeArm			LeftForeArmRoll			LeftHand			LeftHandEnd			L_FingersEnd			LeftHandThumb1			LeftHandThumb2			RightUpLeg			RightLeg			RightFoot			RightToeBase			RightToeBaseEnd			LeftUpLeg			LeftLeg			LeftFoot			LeftToeBase			LeftToeBaseEnd			
		X0	Y0	Z0	X1	Y1	Z1	X2	Y2	Z2	X3	Y3	Z3	X4	Y4	Z4	X5	Y5	Z5	X6	Y6	Z6	X7	Y7	Z7	X8	Y8	Z8	X9	Y9	Z9	X10	Y10	Z10	X11	Y11	Z11	X12	Y12	Z12	X13	Y13	Z13	X14	Y14	Z14	X15	Y15	Z15	X16	Y16	Z16	X17	Y17	Z17	X18	Y18	Z18	X19	Y19	Z19	X20	Y20	Z20	X21	Y21	Z21	X22	Y22	Z22	X23	Y23	Z23	X24	Y24	Z24	X25	Y25	Z25	X26	Y26	Z26	X27	Y27	Z27	X28	Y28	Z28	X29	Y29	Z29	X30	Y30	Z30	X31	Y31	Z31	X32	Y32	Z32	X33	Y33	Z33	X34	Y34	Z34	X35	Y35	Z35	X36	Y36	Z36	X37	Y37	Z37	X38	Y38	Z38	X39	Y39	Z39	X40	Y40	Z40	X41	Y41	Z41	X42	Y42	Z42	X43	Y43	Z43	X44	Y44	Z44	X45	Y45	Z45	X46	Y46	Z46	X47	Y47	Z47	X48	Y48	Z48	X49	Y49	Z49	X50	Y50	Z50	X51	Y51	Z51	X52	Y52	Z52	X53	Y53	Z53	X54	Y54	Z54	X55	Y55	Z55	X56	Y56	Z56	X57	Y57	Z57	X58	Y58	Z58	X59	Y59	Z59	X60	Y60	Z60	X61	Y61	Z61	X62	Y62	Z62	X63	Y63	Z63	X64	Y64	Z64	X65	Y65	Z65	X66	Y66	Z66	X67	Y67	Z67	X68	Y68	Z68	X69	Y69	Z69	X70	Y70	Z70	X71	Y71	Z71	X72	Y72	Z72	X73	Y73	Z73	X74	Y74	Z74	X75	Y75	Z75	X76	Y76	Z76	X77	Y77	Z77	X78	Y78	Z78	X79	Y79	Z79	X80	Y80	Z80	X81	Y81	Z81	X82	Y82	Z82	X83	Y83	Z83	X84	Y84	Z84	X85	Y85	Z85	X86	Y86	Z86	X87	Y87	Z87	X88	Y88	Z88	X89	Y89	Z89	X90	Y90	Z90	X91	Y91	Z91	X92	Y92	Z92	X93	Y93	Z93	X94	Y94	Z94	X95	Y95	Z95	X96	Y96	Z96	X97	Y97	Z97	X98	Y98	Z98	X99	Y99	Z99	X100	Y100	Z100	X101	Y101	Z101	X102	Y102	Z102	X103	Y103	Z103	X104	Y104	Z104	X105	Y105	Z105	X106	Y106	Z106	X107	Y107	Z107	X108	Y108	Z108	X109	Y109	Z109	X110	Y110	Z110	X111	Y111	Z111	X112	Y112	Z112	X113	Y113	Z113	X114	Y114	Z114	X115	Y115	Z115	X116	Y116	Z116	X117	Y117	Z117	X118	Y118	Z118	X119	Y119	Z119	X120	Y120	Z120	X121	Y121	Z121	X122	Y122	Z122	X123	Y123	Z123	X124	Y124	Z124	X125	Y125	Z125	X126	Y126	Z126	X127	Y127	Z127	X128	Y128	Z128	X129	Y129	Z129	
1	0.008333																																											-6.915780	970.848267	-15.955573																																																																												-35.285671	1842.779297	-31.948660	25.159143	1795.298950	60.354027	-101.845634	1789.592651	40.222389	66.063782	1733.518311	-55.244747	-89.747948	1715.485229	-88.309540	-6.692875	1552.429688	-110.582649	0.294016	1373.654419	-138.878922	-11.001171	1484.851318	65.906120	-4.636334	1348.936401	110.079323	143.786240	1500.993530	-120.194183	126.548233	1507.204590	19.379078	238.816879	1356.767944	-40.150429	263.884979	1169.154785	-13.524562	238.443268	1221.555786	-73.215912	260.495270	1055.604004	48.172840	263.867950	927.618835	32.794502	209.489212	934.792786	97.032906				256.244202	889.132507	116.696030	-168.734253	1500.269409	-119.834106	-156.628937	1508.825928	-1.920350	-257.894470	1361.573975	-61.129311	-293.161896	1166.953125	-61.378658	-239.180222	1207.143799	-115.626671	-302.382904	1047.920410	-21.082649	-285.700562	919.294006	-19.477842	-265.071411	946.186951	56.235630	-306.823090	865.727539	36.232292	-296.443085	872.251404	75.871170	117.941200	1090.452026	86.179588	184.248886	981.085022	-22.445534	118.109497	1170.272949	-101.134521	182.323593	662.312866	-17.109556	174.611374	549.043884	-14.997179	112.268631	629.639832	48.167141	195.857483	332.533905	-94.840965	179.595749	123.959084	-135.358017	129.272583	67.329964	-191.549225	207.943268	79.517120	42.347279	126.752808	85.802460	51.369972	163.463760	84.088242	96.058968	-142.549805	1094.070801	85.880249	-201.864014	1011.548645	-63.619179	-117.147133	1156.278442	-118.078209	-137.207123	753.553223	65.235794	-186.500626	565.589417	-20.934801	-161.990219	650.572937	41.922092	-199.236893	412.524750	-93.418457	-179.121460	127.030632	-146.590988	-116.433800	75.532661	-194.738754	-204.361542	76.951958	27.054718	-124.368843	76.061470	42.829418	-178.014404	79.209549	83.115616				-6.774965	970.424805	-23.259048																																																																																																																															276.045288	873.565002	90.821930			
2	0.016667																																											-6.906006	970.818237	-15.801970																																																																												-35.351044	1842.709229	-31.600286	25.170658	1795.303955	60.695210	-101.934509	1789.428467	40.485367	66.066658	1733.577515	-54.894585	-89.798141	1715.386719	-87.989029	-6.772311	1552.333374	-110.304405	0.251808	1373.637329	-138.569153	-11.307149	1484.513916	65.999916	-4.750426	1348.807373	110.273918	143.739899	1500.920044	-119.956375	126.564034	1507.161011	19.636364	238.792694	1356.726318	-39.945217	263.880798	1169.105469	-13.333351	238.390594	1221.477661	-73.053902	260.495300	1055.579102	48.389889	263.885986	927.609314	33.005280	209.479553	934.763123	97.218124				256.776794	889.593018	117.217972	-168.809174	1500.181885	-119.509239	-156.713409	1508.690552	-1.699484	-257.986847	1361.467896	-60.916321	-293.321960	1166.865234	-61.071823	-239.300674	1207.096436	-115.357666	-302.554871	1047.844116	-20.886852	-285.949463	919.171692	-19.226248	-260.260223	944.654358	54.785351	-307.068695	865.642395	36.383816	-296.642670	872.138123	76.002747	117.932083	1090.398071	86.308624	184.302856	981.180115	-22.286951	118.070915	1170.276245	-100.925346	182.324677	662.313843	-17.037054	174.614594	549.075562	-14.925046	112.288361	629.611023	48.234726	195.871307	332.579559	-94.765793	179.575455	123.976372	-135.347305	129.191162	67.230545	-191.499634	207.858932	79.417747	42.395260	126.689262	85.726761	51.399494	163.396866	84.009865	96.074417	-142.588150	1093.906128	86.059418	-201.891769	1011.533020	-63.469662	-117.167488	1156.294067	-117.861603	-137.232605	753.472534	65.361343	-186.543625	565.429871	-20.789150	-162.066528	650.386597	42.036541	-199.333282	412.417145	-93.285316	-179.211670	126.940247	-146.527313	-116.552872	75.462631	-194.688965	-204.437180	76.849686	27.069426	-124.435677	75.975372	42.837578	-178.041122	79.123703	83.173813				-6.762614	970.325073	-23.167521																																																																																																																															276.037628	873.554382	91.049469			
3	0.025000																																											-6.879039	970.862976	-15.570703																																																																												-35.370083	1842.742554	-31.236164	25.186876	1795.346680	61.110439	-102.002899	1789.414917	40.793449	66.091331	1733.650635	-54.506626	-89.840767	1715.441162	-87.676414	-6.769898	1552.344482	-109.992043	0.178515	1373.640137	-138.235840	-11.319968	1484.535767	66.288673	-4.757723	1348.796875	110.516045	143.708649	1500.890015	-119.705368	126.585808	1507.126343	19.883665	238.794998	1356.709595	-39.745495	263.883423	1169.063965	-13.133660	238.358002	1221.465576	-72.845116	260.512756	1055.573120	48.597843	263.869537	927.613159	33.208408	209.468552	934.753906	97.415421				256.740662	889.555237	117.411674	-168.848267	1500.219604	-119.168991	-156.720322	1508.738159	-1.342648	-258.056702	1361.519043	-60.629211	-293.468781	1166.963379	-60.787880	-239.428894	1207.154297	-115.090134	-302.701416	1047.880615	-20.629026	-286.127808	919.224121	-19.047804	-259.496857	944.248657	54.592159	-307.296387	865.691040	36.596329	-296.774170	872.194336	76.184563	120.167007	1091.857788	89.034683	184.307831	981.207703	-22.099394	118.040131	1170.322754	-100.663086	182.339798	662.381348	-16.924316	174.653137	549.131104	-14.805213	112.355110	629.653992	48.377422	195.869980	332.638367	-94.720055	179.569351	124.001984	-135.312881	129.193405	67.292305	-191.471588	207.881958	79.488846	42.390415	126.668350	85.743454	51.390656	163.406174	84.011307	96.089500	-142.581680	1093.933228	86.269493	-201.953552	1011.590210	-63.272160	-117.198143	1156.342041	-117.618233	-137.198654	753.495361	65.499313	-186.565201	565.458008	-20.709175	-162.073364	650.425720	42.176083	-199.406464	412.472137	-93.156837	-179.239502	126.995491	-146.475998	-116.568565	75.517578	-194.653824	-204.443954	76.846016	27.048666	-124.457069	75.988541	42.864876	-178.053284	79.161819	83.178947				-5.695580	970.456909	-21.574160																																																																																																																															276.024628	873.564941	91.281380			
4	0.033333																																											-6.868784	970.943787	-15.371966																																																																												-35.373470	1842.796021	-30.892233	25.145596	1795.350464	61.455448	-101.976128	1789.480713	41.179775	66.049263	1733.660645	-54.193470	-89.846748	1715.553101	-87.320328	-6.762854	1552.420288	-109.696594	0.126987	1373.685181	-137.918655	-11.215725	1484.622803	66.578979	-4.711178	1348.872925	110.814804	143.658051	1500.892944	-119.475739	126.582878	1507.093506	20.116974	238.765442	1356.662598	-39.560375	263.819794	1168.999146	-12.959286	238.334869	1221.451904	-72.648613	260.901428	1055.668579	48.902977	263.829254	927.558899	33.370018	209.454483	934.733154	97.609497				256.758392	889.577454	117.588043	-168.875641	1500.374512	-118.884949	-156.629608	1508.858032	-0.882220	-258.071106	1361.639771	-60.336132	-293.564148	1167.163330	-60.554420	-239.501389	1207.272705	-114.827698	-302.852386	1048.047974	-20.381094	-286.344177	919.414551	-18.874704	-259.700775	944.405945	54.797218	-307.497162	865.775635	36.779461	-296.959503	872.330505	76.381325	121.031937	1092.415894	90.154312	184.292984	981.203064	-21.948389	118.016800	1170.398804	-100.427475	182.335297	662.385559	-16.862093	174.660416	549.144958	-14.766994	112.346817	629.675659	48.438042	195.847504	332.633667	-94.675072	179.546692	123.996338	-135.332840	129.244522	67.442093	-191.517746	207.950302	79.570351	42.358784	126.738411	85.830330	51.405048	163.448700	84.090950	96.078812	-142.501770	1094.077759	86.505188	-201.956070	1011.633240	-63.110271	-117.194557	1156.416992	-117.411560	-137.134430	753.590271	65.626633	-186.566055	565.574951	-20.582621	-162.035309	650.579834	42.303978	-199.420944	412.617188	-93.093010	-179.208054	127.152435	-146.556763	-116.520203	75.638023	-194.664566	-204.406082	76.919785	27.050722	-124.415482	76.101753	42.872269	-178.027542	79.213829	83.177177				-5.294694	970.583435	-20.838610																																																																																																																															275.998016	873.507080	91.450462			
